<mxfile host="app.diagrams.net" modified="2024-03-06T10:15:55.255Z" agent="Mozilla/5.0 (Windows NT 10.0; Win64; x64) AppleWebKit/537.36 (KHTML, like Gecko) Chrome/122.0.0.0 Safari/537.36" version="24.0.0" etag="s8kt2y3CwxYQX9IpoZPV" type="github">
  <diagram name="Page-1" id="E6ki8FCaI9a1fJuKlnfu">
    <mxGraphModel>
      <root>
        <mxCell id="0" />
        <mxCell id="1" parent="0" />
      </root>
    </mxGraphModel>
  </diagram>
</mxfile>
